General
Complete name                            : Once Upon a Time in the West [1968] BRRip XviD - CODY.avi
Format                                   : AVI
Format/Info                              : Audio Video Interleave
Format profile                           : OpenDML
Format settings                          : rec
File size                                : 1.43 GiB
Duration                                 : 2h 46mn
Overall bit rate mode                    : Variable
Overall bit rate                         : 1 236 Kbps
Writing application                      : AVI-Mux GUI 1.17.8.3, Feb 16 201019:42:50

Video
ID                                       : 0
Format                                   : MPEG-4 Visual
Format profile                           : Advanced Simple@L5
Format settings, BVOP                    : 4
Format settings, QPel                    : No
Format settings, GMC                     : No warppoints
Format settings, Matrix                  : Default (H.263)
Codec ID                                 : XVID
Codec ID/Hint                            : XviD
Duration                                 : 2h 46mn
Bit rate                                 : 1 100 Kbps
Width                                    : 720 pixels
Height                                   : 304 pixels
Display aspect ratio                     : 2.35:1
Frame rate                               : 23.976 fps
Color space                              : YUV
Chroma subsampling                       : 4:2:0
Bit depth                                : 8 bits
Scan type                                : Progressive
Compression mode                         : Lossy
Bits/(Pixel*Frame)                       : 0.210
Stream size                              : 1.28 GiB (89%)
Writing library                          : XviD 1.2.1 (UTC 2008-12-04)

Audio
ID                                       : 1
Format                                   : MPEG Audio
Format version                           : Version 1
Format profile                           : Layer 3
Codec ID                                 : 55
Codec ID/Hint                            : MP3
Duration                                 : 2h 46mn
Bit rate mode                            : Variable
Bit rate                                 : 128 Kbps
Channel(s)                               : 2 channels
Sampling rate                            : 48.0 KHz
Compression mode                         : Lossy
Stream size                              : 152 MiB (10%)
Alignment                                : Aligned on interleaves
Interleave, duration                     : 24 ms (0.58 video frame)
Interleave, preload duration             : 174 ms
Title                                    : Once Upon a Time in the West [1968] BRRip XviD - CODY
Writing library                          : L3.99r
Encoding settings                        : -m s -V 4 -q 2 -lowpass 17 -b 128



IMDB link:                                 http://www.imdb.com/title/tt0064116/



Subtitles included                       : Romanian, English



Please seed at least 1,5:1. This way this torrent has a chance to survive!



Thanks. Enjoy !